# xmcd
#
# Track frame offsets: 
#        150
#        17707
#        37230
#        51461
#        70105
#        84691
#        100471
#        115384
#        129637
#        144724
#        160696
#        175179
#        190511
#        201892
#        217745
#
# Disc length: 3124 seconds
#
# Revision: 1
# Processed by: cddbd v1.5.2PL0 Copyright (c) Steve Scherf et al.
# Submitted via: ExactAudioCopy v0.99pb5
#
DISCID=da0c320f
DTITLE=Various Artist - Classic Country - TL 626-32 - 90s Greats - CD 2
DYEAR=2002
DGENRE=Country
TTITLE0=Mavericks - What a crying shame
TTITLE1=Alison Krauss and Union Station - When you say nothing at all
TTITLE2=Trace Adkins - I left something turned on at home
TTITLE3=Tany Tucker - Two sparrows in a hurricane
TTITLE4=Alan Jackson - Summertime blues
TTITLE5=Doug Stone - A jukebox with a country song
TTITLE6=Mark Wills - I do (cherish you)
TTITLE7=Terri Clark - Better things to do
TTITLE8=Alabama feat. 'N Sync - God must have spent a little more time
TTITLE8=on you
TTITLE9=Tracy Lawrence - How a cowgirl says goodbye
TTITLE10=Mike Reid - Walk on faith
TTITLE11=Sammy Kershaw - Third rate romance
TTITLE12=Ricky van Shelton - I've cried my last tear for you
TTITLE13=Kathy Mattea - Walking away a winner
TTITLE14=Shenandoah - Next to you, next to me
EXTD=YEAR: 2002
EXTT0=
EXTT1=
EXTT2=
EXTT3=
EXTT4=
EXTT5=
EXTT6=
EXTT7=
EXTT8=
EXTT9=
EXTT10=
EXTT11=
EXTT12=
EXTT13=
EXTT14=
PLAYORDER=
